<svg width="161" height="37" viewBox="0 0 161 37" fill="none" xmlns="http://www.w3.org/2000/svg">
<g clip-path="url(#clip0)">
<path d="M124.807 36.9233H119.161V11.191H124.807V36.9233Z" fill="black"/>
<path d="M12.2577 16.4671C10.4851 16.4448 8.80002 17.1825 7.5964 18.5015C6.32714 19.8429 5.6925 21.6985 5.6925 24.046C5.6925 26.4158 6.32714 28.2937 7.61829 29.6575C8.84379 30.9988 10.5507 31.7366 12.3452 31.7143C14.0084 31.7143 15.3433 31.2448 16.35 30.3281C17.291 29.501 17.9694 28.4055 18.3414 27.1982L23.3309 29.0538C22.6744 31.2224 21.4052 33.1003 19.5231 34.6653C17.6411 36.2303 15.2558 37.0127 12.3452 37.0127C8.84379 37.0127 5.91134 35.7831 3.54788 33.3016C1.18442 30.82 0.00268555 27.7348 0.00268555 24.046C0.00268555 20.3124 1.16253 17.2272 3.50411 14.7904C5.84569 12.3535 8.73437 11.1239 12.2139 11.1239C15.1901 11.1239 17.6192 11.9064 19.5013 13.4713C21.3833 15.0363 22.5869 16.9366 23.1559 19.1275L18.0569 21.0278C17.7505 19.7982 17.094 18.658 16.1749 17.8085C15.212 16.9142 13.9209 16.4671 12.2577 16.4671Z" fill="black"/>
<path d="M32.6972 29.5904C33.9446 30.9318 35.6953 31.6919 37.5117 31.6472C39.3281 31.6919 41.0569 30.9541 42.3262 29.6127C43.6392 28.249 44.2957 26.371 44.2957 23.9342C44.2957 21.542 43.6392 19.6864 42.3262 18.3451C41.0569 17.026 39.3281 16.2883 37.5117 16.333C35.6953 16.2883 33.9665 17.026 32.6972 18.3451C31.3842 19.6864 30.7277 21.542 30.7277 23.9342C30.7277 26.3263 31.3842 28.2266 32.6972 29.5904ZM37.5117 11.1239C41.1663 11.1239 44.1863 12.3312 46.5497 14.7457C48.9351 17.1602 50.1168 20.223 50.1168 23.9565C50.1168 27.6677 48.9351 30.7529 46.5497 33.1898C44.1644 35.6266 41.1663 36.8339 37.5117 36.8339C33.9008 36.8339 30.9027 35.6266 28.5174 33.1898C26.1321 30.7529 24.9503 27.6677 24.9503 23.9565C24.9503 20.2454 26.1321 17.1825 28.5174 14.7457C30.8809 12.3312 33.879 11.1239 37.5117 11.1239Z" fill="black"/>
<path d="M64.8446 11.2804V17.1602C64.2319 17.0707 63.5973 17.0037 62.9845 17.0037C58.6953 17.0037 56.5725 19.1499 56.5725 23.9118V36.8339H50.8827V11.191H56.4193V15.3046C56.9664 14.0079 57.9074 12.9348 59.1111 12.2417C60.3803 11.4816 61.8465 11.1016 63.3347 11.1239C63.838 11.1239 64.3632 11.1686 64.8446 11.2804Z" fill="black"/>
<path d="M72.6135 21.3185H85.2842C85.2405 19.8653 84.6277 18.4792 83.5554 17.4955C82.4831 16.4671 80.9293 15.9529 78.916 15.9529C77.0778 15.9529 75.5897 16.4895 74.4736 17.5626C73.3356 18.6357 72.7229 19.8877 72.6135 21.3185ZM85.9626 27.623L91.1491 29.1656C90.4051 31.3789 89.0264 33.2121 86.9912 34.6653C84.956 36.1185 82.4612 36.8339 79.485 36.8339C75.8085 36.8339 72.701 35.649 70.1406 33.3016C67.5801 30.9541 66.289 27.8019 66.289 23.8448C66.289 20.1336 67.5364 17.0708 70.0311 14.701C72.3946 12.3759 75.5678 11.0792 78.8504 11.1239C82.8114 11.1239 85.897 12.2641 88.1291 14.5221C90.3613 16.8025 91.4774 19.843 91.4774 23.6883C91.4774 24.7167 91.4336 25.3203 91.3242 25.5215H72.4603C72.504 27.2653 73.2919 28.9197 74.6049 30.0375C75.9617 31.2224 77.7124 31.8708 79.5069 31.826C82.8114 31.8484 84.9779 30.4399 85.9626 27.623Z" fill="black"/>
<path d="M98.4584 36.9233H92.681V-0.00964355H98.5022V14.8574C99.1149 13.829 100.122 12.9571 101.522 12.2641C103.032 11.5487 104.673 11.1686 106.337 11.2133C109.947 11.2133 112.77 12.3982 114.806 14.7904C116.841 17.1825 117.848 20.223 117.848 23.9342C117.848 27.7124 116.775 30.7976 114.652 33.2345C112.53 35.649 109.685 36.8562 106.14 36.8562C102.594 36.8562 100.034 35.5819 98.4584 33.0109V36.9233ZM109.991 29.6127C111.239 28.2266 111.851 26.3487 111.851 23.9789C111.851 21.6091 111.239 19.7535 110.013 18.3897C108.788 17.0484 107.168 16.3553 105.155 16.3553C103.207 16.3553 101.61 17.026 100.34 18.3897C99.0711 19.7311 98.4584 21.6091 98.4584 23.9789C98.4584 26.3263 99.093 28.1819 100.34 29.5904C101.61 30.9988 103.207 31.6919 105.155 31.6919C107.146 31.6919 108.744 30.9988 109.991 29.6127Z" fill="black"/>
<path d="M151.505 36.9009H126.601V31.8484L142.336 16.2883H126.339V11.191H151.461V16.0871L135.53 31.7813H151.505V36.9009Z" fill="black"/>
<path d="M153.89 35.6713C153.102 34.8888 152.665 33.7934 152.687 32.6756C152.665 31.5354 153.102 30.4623 153.89 29.6574C154.656 28.8302 155.707 28.3831 156.823 28.4055C157.939 28.3831 159.011 28.8302 159.777 29.6574C160.587 30.4399 161.024 31.5354 161.003 32.6756C161.024 33.8157 160.587 34.8888 159.777 35.6713C158.989 36.4762 157.917 36.9233 156.823 36.9009C155.729 36.9233 154.656 36.4762 153.89 35.6713Z" fill="#C0C0C0"/>
</g>
<defs>
<clipPath id="clip0">
<rect width="161" height="37" fill="white"/>
</clipPath>
</defs>
</svg>
